<svg width="20" height="35" fill="none" xmlns="http://www.w3.org/2000/svg"><path d="M8.985 15.032a.626.626 0 0 1-.442-.179L3.485 9.922a.602.602 0 0 1 0-.862.64.64 0 0 1 .883 0l4.617 4.502 4.617-4.502a.64.64 0 0 1 .883 0 .602.602 0 0 1 0 .862l-5.058 4.931a.626.626 0 0 1-.442.18Z" fill="#292D32"/><path d="M8.984 14.893a.622.622 0 0 1-.625-.61V.61c0-.333.283-.609.625-.609s.625.276.625.61v13.674c0 .333-.283.61-.625.61ZM14.015 14.781a3.46 3.46 0 0 0-3.453 3.453v.407c0 .333.277.609.61.609.333 0 .609-.276.609-.61v-.406a2.233 2.233 0 1 1 4.469 0c0 1.235-1 2.235-2.235 2.235H.61a.614.614 0 0 0-.61.61c0 .332.277.608.61.608h13.406a3.46 3.46 0 0 0 3.453-3.453 3.46 3.46 0 0 0-3.453-3.453ZM14.015 22.906H.61a.614.614 0 0 0-.61.61c0 .333.277.609.61.609h13.406a2.233 2.233 0 1 1 0 4.469c-1.235 0-2.234-1-2.234-2.235v-.406a.614.614 0 0 0-.61-.61.614.614 0 0 0-.609.61v.406a3.46 3.46 0 0 0 3.453 3.453 3.46 3.46 0 0 0 3.453-3.453 3.46 3.46 0 0 0-3.453-3.453Z" fill="#292D32"/><path d="M6.549 25.343H.609a.614.614 0 0 0-.61.61c0 .332.277.609.61.609h5.94c.869 0 1.576.706 1.576 1.576 0 .87-.707 1.576-1.576 1.576-.87 0-1.577-.707-1.577-1.576v-.309a.614.614 0 0 0-.61-.61.614.614 0 0 0-.608.61v.309a2.795 2.795 0 1 0 2.795-2.795Z" fill="#292D32"/></svg>